<svg version="1.2" xmlns="http://www.w3.org/2000/svg" viewBox="50 150 1090 700" width="1090" height="700">
	<style>
		.white-fill { fill: #ffffff } 
	</style>
	<g id="Layer 1">
		<g id="&lt;Group&gt;">
			<path id="&lt;Compound Path&gt;" fill-rule="evenodd" class="white-fill" d="m1028.57 745.03v6.91l-6.52-0.27c-3.45-0.17-6.85-0.25-10.28-0.25q-7.97 0-15.07 0.52l-0.84-0.93 0.86-11.62-17.51 13.18c-3.12 0.71-5.92 1.09-8.32 1.09q-8.87 0-13.75-5.32-4.86-5.29-4.86-15.49 0.02-12.55 6.63-17.69 8.52-6.72 37.81-12.03-0.17-9.93-3.42-14.39-4.61-6.15-14.2-6.13-2.27-0.01-4.64 0.52c-1.6 0.39-3.18 0.93-4.81 1.73l-3.75 8.94-5.87-1.43 0.18-3.76-0.09-3.7-0.09-3.38c8.59-5.32 14.76-8.68 18.52-10q4.1-1.52 11.43-1.53c6.62 0 12.01 1.02 16.15 3 4.13 2.01 7.18 4.71 9.07 8.15 1.93 3.44 2.86 8.44 2.86 15q0.01 4.15-0.33 14.79c-0.22 7.3-0.33 13.2-0.33 17.62q0 10.57 0.59 12.85c0.19 0.9 0.74 1.58 1.63 2.11 0.87 0.52 3.85 0.98 8.95 1.51zm-31.85-34.67c-9.86 2.13-16.34 4.46-19.3 6.96-2.96 2.5-4.48 5.85-4.48 10.08q0 5.2 2.89 8.12c1.9 1.98 4.32 2.96 7.2 2.96q6.72 0 13.69-7.49zm-115.77 41.57v-6.91c5.67-0.29 8.9-0.58 9.74-0.99 0.66-0.36 1.21-0.86 1.57-1.62 0.64-1.36 0.99-4.31 1.11-8.91 0.22-8.21 0.35-15.67 0.35-22.43 0-12.96-0.18-20.67-0.53-23.05-0.14-1.4-0.66-2.43-1.49-3.02q-1.26-0.85-10.75-1.21v-6.55q16.97-1.63 24.29-3.99l8.64-3.26q1.16 0.01 1.17 1.61l-0.04 1.19c-0.23 3.53-0.29 8.62-0.29 15.26q4.24-4.13 9.41-10.48c2.56-3.12 4.8-5.19 6.67-6.13q2.87-1.45 7.59-1.45c1.79 0 3.58 0.33 5.44 0.93q-0.79 8.44-1.04 22.95l-3.73 1.34q-1.94-3.28-4.23-4.56c-1.5-0.9-3.5-1.34-5.93-1.34q-4.99 0-8.58 2.62-3.61 2.63-4.6 6.01c-0.44 1.67-0.67 7.43-0.67 17.19q0 21.39 0.59 24.94c0.23 1.56 0.73 2.63 1.57 3.19q1.89 1.26 12.49 1.76v6.91l-9.38-0.27q-8.96-0.25-15.51-0.25-6.19 0-14.38 0.25zm-67.7 0v-6.9l5.23-0.42c3.42-0.17 5.52-0.69 6.39-1.59 0.9-0.93 1.44-3.24 1.68-7.01 0.41-7.88 0.65-17.28 0.65-28.28l-0.19-20.29q-8.28 0.42-13.76 0.84v-4.38l8.04-4.13 1.43-0.65 0.82-0.45 2.46-1.24v-7.95c0.04-6.32 0.8-10.92 2.2-13.78q2.16-4.21 11.47-12.66 12.59-11.46 15.69-13.41c3.57-2.27 7.9-3.44 12.9-3.44 1.59 0 3.2 0.14 4.89 0.46 1.68 0.32 3.42 0.77 5.2 1.41q-1.43 9.86-2.36 20.93l-3.27 0.65c-2.47-2.37-4.92-4.17-7.33-5.31q-3.57-1.75-7.11-1.75-4.61-0.01-6.98 2.07-2.34 2.05-2.88 6.92-0.56 4.85-0.56 25.86h8.53q6.96-0.01 14.24-1.22l1.01 1.33q-1.34 4.77-2.19 10.24-4.93-0.35-9.28-0.34h-12.31c0 24.32 0.19 40.23 0.53 47.64q0.23 6.31 1.82 7.68c1.36 1.19 6.39 1.93 15.06 2.27v6.9q-12.38-0.51-23.78-0.51-11.44 0-28.24 0.51zm-101.23 0v-6.9q8.96-0.52 10.12-1.47 1.16-0.97 1.42-4.34c0.34-5.65 0.51-15.66 0.51-29.97q0-10.61-0.36-18.3c-0.1-3.12-0.29-4.99-0.63-5.53q-0.43-0.7-1.31-1.01-0.93-0.36-9.75-0.62v-6.55q4.52 0 14.15-1.94c6.38-1.34 11.79-2.84 16.15-4.53l2.28-0.78q1.15 0.01 1.17 1.94l-0.08 0.78q-0.27 2.35-0.28 12.13l13.02-10.96c1.64-1.42 3.3-2.35 5.05-2.86 2.43-0.66 5.44-1.03 8.95-1.03 5.95 0 10.78 1.05 14.59 3.09 3.76 2.07 6.55 4.88 8.27 8.54q2.64 5.44 2.64 16.9 0.01 5.09-0.23 11.73-0.46 13.67-0.45 23.63c0 3.79 0.32 6.4 0.93 7.89q0.69 1.48 1.88 2c0.84 0.34 3.91 0.73 9.25 1.26v6.9l-10.35-0.34-6.68-0.17-17.36 0.51-0.91-1.09q2.23-16.01 2.24-32.89 0.01-21.38-2.6-26.36-3.37-6.42-12.27-6.41c-3.81 0-7.14 0.97-9.9 2.91q-4.2 2.93-5.45 6.22-0.61 1.32-0.62 8.52c0 20.34 0.1 32.03 0.28 34.99q0.26 4.44 1.42 5.44 1.55 1.27 11.39 1.77v6.9c-9.74-0.34-18-0.51-24.71-0.51q-5.98 0-21.77 0.51zm-65.83 0v-6.9c7.57-0.4 11.86-1.03 12.84-1.96q1.44-1.31 1.8-6.67 0.69-11.12 0.69-41.56 0-11.63-0.33-33.82c-0.09-10.04-0.34-15.6-0.67-16.57q-0.49-1.47-1.73-2.16c-1.24-0.62-5.41-1.14-12.6-1.61v-6.89c11.45 0.33 20.24 0.5 26.28 0.5q15.67 0 28.32-0.5v6.89q-11.32 0.69-12.77 1.82-1.45 1.15-1.88 5.27-0.68 8.11-0.68 32.87 0.01 32.94 0.25 45.94c0.15 8.65 0.67 13.77 1.48 15.41q0.51 1.1 2.12 1.72 1.64 0.64 11.48 1.32v6.9l-9.85-0.22c-6.2-0.21-11.77-0.29-16.64-0.29z"/>
			<path id="&lt;Path&gt;" class="white-fill" d="m272.94 752.28l-46.73-0.71 1.63-67.01-65.86-125.13h52.21c13.02 29.67 27.89 58.52 44.7 86.58 13-29.41 31.92-54.11 38.98-88.22l51.33 1.29-72.63 122.95z"/>
			<path id="&lt;Path&gt;" class="white-fill" d="m393.78 752.54h-34.61v-194.19l54.44-1.82 66.28 119.01 62.24-117.34 55.14-0.13v199.86l-51.88 0.14-0.76-145-62.89 138.92h-24.06l-64.05-136.11z"/>
			<path id="&lt;Compound Path&gt;" fill-rule="evenodd" class="white-fill" d="m436.57 496l-32.92-19 201.41-342.85 210.93 336.57-30.6 19.17-107.74-176.03-56.86 92.02v77.08l24.06 4.48-17.14 9.91c-13.89-5.27-27.69-5.97-41.31 0.2l-20.29-5.62 21.22-8.17v-79.54l-53.05-73.83zm119.12-202.94l48.16 74.24 53.33-78.62-53.17-82.92z"/>
		</g>
	</g>
</svg>
