<svg version="1.2" xmlns="http://www.w3.org/2000/svg" viewBox="50 650 750 450" width="750" height="450">
	<style>
		.white-fill { fill: #ffffff } 
	</style>
	<g id="Layer 1">
		<g id="&lt;Group&gt;">
			<g id="&lt;Group&gt;">
				<g id="&lt;Group&gt;">
					<g id="&lt;Group&gt;">
						<!-- Removed the solid background circle path that was filling the negative space -->
						<g id="&lt;Group&gt;">
							<path fill-rule="evenodd" class="white-fill" d="m559.05 805.39c0 70.53-57.17 127.7-127.7 127.7-70.53 0-127.7-57.17-127.7-127.7 0-70.53 57.17-127.7 127.7-127.7 70.53 0 127.7 57.17 127.7 127.7zm-207.37-79.67c-21.28 21.28-33 49.57-33 79.67 0 30.09 11.72 58.39 33 79.67 21.28 21.28 49.57 33 79.67 33 30.1 0 58.39-11.72 79.67-33 21.28-21.28 33-49.58 33-79.67 0-30.1-11.72-58.39-33-79.67-21.28-21.28-49.57-33-79.67-33-30.1 0-58.39 11.72-79.67 33z"/>
						</g>
					</g>
					<g id="&lt;Group&gt;">
						<path class="white-fill" d="m420.84 828.93c-4.23 13.96-15.13 24.75-28.45 28.16l-0.01 0.01c-5.25 1.41-10.85 1.66-15.74 0.72q-2.86-0.54-5.57-1.88c-3.39-1.6-6.19-3.96-8.32-7.02-2.16-3.09-3.6-6.53-4.27-10.21-0.67-3.69-0.59-7.44 0.23-11.13 0.81-3.65 2.41-6.82 4.74-9.41 3.62-3.87 8.09-6.82 13.29-8.76 5.42-2.02 10.88-3.93 16.24-5.7q0.62-0.21 1.24-0.43l-0.02 0.01 11.41-3.47c4.16-1.32 8.67 0.49 10.76 4.31 3.41-1.09 5.9-4.29 5.9-8.06v-23.11l0.01-0.31q0.02-0.28 0.02-0.56c0-16.38-13.14-29.75-29.43-30.12v-0.04l-0.03 0.01-0.17-0.01c-4.5 0-9.1 0.64-13.69 1.91-4.61 1.29-8.92 3.32-12.8 6.03-3.88 2.73-7.4 6.16-10.45 10.21-3.08 4.09-5.38 9-6.83 14.59l-0.36 1.4 6.41 1.19 0.32-1.2c1.21-4.48 3.08-8.45 5.57-11.8 2.5-3.38 5.39-6.31 8.57-8.71 3.18-2.39 6.66-4.21 10.34-5.4 3.71-1.19 7.42-1.8 11.04-1.8 6.27 0 11.98 1.95 16.99 5.79 5.33 4.09 7.68 8.5 8.68 16.19l0.08 1.12v1.93c-0.17 3.95-1.08 7.32-2.72 10.04-1.85 3.08-4.38 5.69-7.49 7.74-3.18 2.1-6.89 3.85-11.01 5.21-4.19 1.38-8.66 2.79-13.3 4.19-4.58 1.38-9.2 2.88-13.74 4.45-4.56 1.59-8.89 3.59-12.87 5.95-5.72 3.4-9.84 7.89-12.22 13.34-2.37 5.42-3.2 10.92-2.46 16.35 0.74 5.46 3.11 10.52 7.04 15.05 3.94 4.55 9.49 7.76 16.5 9.53 3.86 0.96 7.94 1.44 12.12 1.44 1.37 0 2.98-0.13 4.39-0.24l0.14-0.01 0.01 0.02c30.6-3.44 41-21.92 44.34-36.82l0.37-1.64h-4.52z"/>
						<path class="white-fill" d="m520.17 824.3c-2.39-5.45-6.5-9.94-12.23-13.34-3.98-2.36-8.31-4.36-12.87-5.95-4.54-1.57-9.16-3.07-13.74-4.45-4.63-1.4-9.11-2.81-13.3-4.19-4.12-1.36-7.82-3.11-11-5.21-3.12-2.05-5.64-4.66-7.5-7.74-1.63-2.72-2.55-6.09-2.72-10.04v-1.93l0.09-1.12c0.99-7.69 3.34-12.1 8.67-16.19 5.01-3.84 10.73-5.79 17-5.79 3.61 0 7.32 0.61 11.03 1.8 3.69 1.19 7.17 3.01 10.34 5.4 3.19 2.4 6.07 5.33 8.58 8.71 2.48 3.35 4.36 7.32 5.56 11.8l0.32 1.2 6.42-1.19-0.36-1.4c-1.46-5.59-3.76-10.5-6.84-14.59-3.05-4.05-6.57-7.48-10.45-10.21-3.88-2.71-8.18-4.74-12.8-6.03-4.58-1.27-9.19-1.91-13.69-1.91l-0.16 0.01-0.03-0.01-0.01 0.04c-16.29 0.37-29.43 13.74-29.43 30.12q0.01 0.28 0.02 0.56l0.02 0.31v23.11c0 3.77 2.48 6.97 5.89 8.06 2.1-3.82 6.61-5.63 10.76-4.31l16.24 5.16-0.3-0.16c4.29 1.45 8.63 2.99 12.93 4.59 5.21 1.94 9.68 4.89 13.29 8.76 2.34 2.59 3.94 5.76 4.75 9.41 0.82 3.69 0.9 7.44 0.22 11.13-0.67 3.68-2.1 7.12-4.26 10.21-2.13 3.06-4.93 5.42-8.32 7.02q-2.71 1.34-5.58 1.88c-4.89 0.94-10.49 0.69-15.73-0.72l-0.02-0.01c-13.32-3.41-24.22-14.2-28.44-28.16l-0.29-0.95h-4.52l0.37 1.64c3.34 14.9 13.75 33.38 44.35 36.82v-0.02l0.14 0.01c1.42 0.11 3.02 0.24 4.39 0.24 4.18 0 8.26-0.48 12.12-1.44 7.01-1.77 12.56-4.98 16.51-9.53 3.93-4.53 6.3-9.59 7.04-15.05 0.74-5.43-0.09-10.93-2.46-16.35z"/>
					</g>
				</g>
				<path class="white-fill" d="m358.9 957c0-5.97 4.77-10.74 10.74-10.74 5.97 0 10.74 4.77 10.74 10.74 0 5.97-4.77 10.74-10.74 10.74-5.97 0-10.74-4.77-10.74-10.74z"/>
				<path fill-rule="evenodd" class="white-fill" d="m114.57 1046.52v-8.66c-4.18 4.93-10.59 9.85-20.74 9.85-14.17 0-24.61-9.25-24.61-22.53 0-19.54 23.57-27.3 44.9-17.75-0.44-7.91-3.87-15.82-15.06-15.82-5.82 0-11.49 1.79-15.52 4.33l-5.97-10.29c4.33-3.29 12.24-7.16 22.08-7.16 17.61 0 29.24 9.84 29.24 36.7v31.33zm-31.03-20.89c0 5.22 4.63 8.95 11.64 8.95 8.95 0 18.2-6.71 19.39-15.37-10.74-5.52-31.03-4.77-31.03 6.42z"/>
				<path class="white-fill" d="m187.77 1026.52c0 12.98-11.49 21.19-23.72 21.19-14.92 0-23.58-8.5-26.41-11.34l7.16-10.44c4.18 4.03 9.7 8.5 18.35 8.65 7.16 0.15 10.3-4.18 10.3-7.31 0-2.98-1.65-6.12-9.25-8.21-17.31-4.77-22.98-9.84-22.98-21.33 0-9.55 7.46-19.24 22.68-19.24 6.41 0 12.83 1.79 19.24 6.86l-6.71 10.44c-3.28-2.39-7.46-4.18-12.53-4.18-5.37 0-8.36 2.54-8.36 5.67 0 3.73 2.54 5.52 10.89 7.46 17.46 4.03 21.34 12.98 21.34 21.78z"/>
				<path class="white-fill" d="m255.9 1011.31v35.21h-14.33v-35.21c0-12.68-3.88-19.7-14.92-19.7-8.65 0-16.11 8.06-16.11 20.29v34.62h-14.32v-105.16l14.32-14.21v60.88c2.24-4.32 8.8-9.54 18.8-9.54 17.01 0 26.56 11.63 26.56 32.82z"/>
				<path class="white-fill" d="m362.48 979.68h14.32v66.84h-14.32z"/>
				<path class="white-fill" d="m446.65 1011.31v35.21h-14.33v-35.21c0-12.68-3.87-19.7-14.91-19.7-8.66 0-16.12 8.06-16.12 20.29v34.62h-14.32v-66.84h14.32v8.35c2.24-4.32 8.81-9.54 18.8-9.54 17.01 0 26.56 11.63 26.56 32.82z"/>
				<path class="white-fill" d="m536.35 1026.52c0 12.98-11.49 21.19-23.72 21.19-14.92 0-23.58-8.5-26.41-11.34l7.16-10.44c4.18 4.03 9.7 8.5 18.35 8.65 7.16 0.15 10.29-4.18 10.29-7.31 0-2.98-1.64-6.12-9.24-8.21-17.31-4.77-22.98-9.84-22.98-21.33 0-9.55 7.46-19.24 22.68-19.24 6.41 0 12.83 1.79 19.24 6.86l-6.71 10.44c-3.28-2.39-7.46-4.18-12.53-4.18-5.37 0-8.36 2.54-8.36 5.67 0 3.73 2.54 5.52 10.89 7.46 17.46 4.03 21.34 12.98 21.34 21.78z"/>
				<path class="white-fill" d="m605.22 1011.31v35.21h-14.32v-35.21c0-12.68-3.88-19.7-14.92-19.7-8.66 0-16.11 8.06-16.11 20.29v34.62h-14.33v-105.16l14.33-13.94v60.61c2.23-4.32 8.8-9.54 18.79-9.54 17.01 0 26.56 11.63 26.56 32.82z"/>
				<path fill-rule="evenodd" class="white-fill" d="m667.36 1020.6l10.92 7.55c-4.08 7.98-11.3 14.44-20.56 17.3-18.25 5.65-37.66-4.58-43.31-22.82-5.64-18.24 4.59-37.65 22.83-43.3 14.25-4.41 27.63 0.97 35.48 13.69l-34.74 37.62c3.85 2.87 10.44 3.95 15.85 2.27 6.7-2.07 10.77-7.08 13.53-12.31zm-39.26-2.21c0.39 1.29 0.89 2.38 1.43 3.62l25.99-28.04c-3.02-2.19-7.56-4.22-14.4-2.1-10.54 3.27-16.29 15.98-13.02 26.52z"/>
				<path class="white-fill" d="m781.6 1011.31v35.21h-14.32v-35.21c0-12.68-3.88-19.7-14.92-19.7-8.65 0-16.11 8.06-16.11 20.29v34.62h-14.32v-105.71l14.32-14.81v62.03c2.24-4.32 8.8-9.54 18.8-9.54 17.01 0 26.55 11.63 26.55 32.82z"/>
				<path class="white-fill" d="m700.5 958.57v-9.92l-0.04 0.04v-21.27l-14.31 14.03v17.12h-11.91v13.13h11.93v74.82h14.33v-74.82h12.31v-13.13z"/>
				<path class="white-fill" d="m275.24 980.53l7 30.32c1.51 7.14 3.02 11.48 4.25 18.75h0.28c1.37-7.27 3.57-11.75 5.49-18.61l8.64-30.46h13.72l8.37 29.64c2.06 7.82 3.84 12.16 5.35 19.43h0.28c1.1-7.27 2.6-11.61 4.39-19.43l7.41-29.64h16.6l-20.99 66.82h-15.64l-7.96-27.17c-2.06-7-3.57-13.31-5.08-21.4h-0.27c-1.38 8.23-3.16 14.82-5.08 21.4l-8.51 27.17h-15.78l-19.76-66.82z"/>
			</g>
		</g>
	</g>
</svg>
